# xmcd
#
# Track frame offsets:
#	150
#	12286
#	30908
#	46807
#	58340
#	70153
#	80955
#	91941
#	106964
#	119986
#	136955
#	152525
#	166072
#	184687
#	203440
#	221732
#	237530
#	248581
#	259565
#	277863
#
# Disc length: 3815 seconds
#
# Revision: 3
# Processed by: cddbd v1.5.2PL0 Copyright (c) Steve Scherf et al.
# Submitted via: audiograbber 1.83.01
#
DISCID=0f0ee514
DTITLE=Tal Farlow - The Fastest Guitar Player Of His Era - Disc 1
DYEAR=2005
DGENRE=Jazz
TTITLE0=Cheek To Cheek
TTITLE1=Night And Day
TTITLE2=September Song
TTITLE3=Time And Tide
TTITLE4=Move
TTITLE5=I've Got You Under My Skin
TTITLE6=I Get a Kick Out Of You
TTITLE7=I'll Remember April
TTITLE8=I Can't Believe That You're In Love With Me
TTITLE9=Little White Lies
TTITLE10=Zing! Went the Strings Of My Heart
TTITLE11=Have You Met Miss Jones
TTITLE12=If I Had You
TTITLE13=Godchild
TTITLE14=I'm Yours
TTITLE15=Mood Indigo
TTITLE16=Swedish Pastry
TTITLE17=This Can't Be Love
TTITLE18=Prelude To a Kiss
TTITLE19=Deed I Do
EXTD=
EXTT0=
EXTT1=
EXTT2=
EXTT3=
EXTT4=
EXTT5=
EXTT6=
EXTT7=
EXTT8=
EXTT9=
EXTT10=
EXTT11=
EXTT12=
EXTT13=
EXTT14=
EXTT15=
EXTT16=
EXTT17=
EXTT18=
EXTT19=
PLAYORDER=
